<svg width="24" height="24" viewBox="0 0 24 24" fill="none" xmlns="http://www.w3.org/2000/svg">
<mask id="path-1-inside-1_10_23075" fill="white">
<path fill-rule="evenodd" clip-rule="evenodd" d="M4 4H20V8H4V4ZM4 10H20V14H4V10ZM20 16H4V20H20V16Z"/>
</mask>
<path d="M20 4H21V3H20V4ZM4 4V3H3V4H4ZM20 8V9H21V8H20ZM4 8H3V9H4V8ZM20 10H21V9H20V10ZM4 10V9H3V10H4ZM20 14V15H21V14H20ZM4 14H3V15H4V14ZM4 16V15H3V16H4ZM20 16H21V15H20V16ZM4 20H3V21H4V20ZM20 20V21H21V20H20ZM20 3H4V5H20V3ZM21 8V4H19V8H21ZM4 9H20V7H4V9ZM3 4V8H5V4H3ZM20 9H4V11H20V9ZM21 14V10H19V14H21ZM4 15H20V13H4V15ZM3 10V14H5V10H3ZM4 17H20V15H4V17ZM5 20V16H3V20H5ZM20 19H4V21H20V19ZM19 16V20H21V16H19Z" fill="#D6DCE1" mask="url(#path-1-inside-1_10_23075)"/>
</svg>
